<svg id="visual" viewBox="0 0 900 600" width="900" height="600" xmlns="http://www.w3.org/2000/svg" xmlns:xlink="http://www.w3.org/1999/xlink" version="1.1"><rect x="0" y="0" width="900" height="600" fill="#d3d3d3"></rect><defs><linearGradient id="grad1_0" x1="33.3%" y1="100%" x2="100%" y2="0%"><stop offset="20%" stop-color="#7b8b9a" stop-opacity="1"></stop><stop offset="80%" stop-color="#7b8b9a" stop-opacity="1"></stop></linearGradient></defs><defs><linearGradient id="grad1_1" x1="33.3%" y1="100%" x2="100%" y2="0%"><stop offset="20%" stop-color="#7b8b9a" stop-opacity="1"></stop><stop offset="80%" stop-color="#8c99a5" stop-opacity="1"></stop></linearGradient></defs><defs><linearGradient id="grad1_2" x1="33.3%" y1="100%" x2="100%" y2="0%"><stop offset="20%" stop-color="#9ea7b0" stop-opacity="1"></stop><stop offset="80%" stop-color="#8c99a5" stop-opacity="1"></stop></linearGradient></defs><defs><linearGradient id="grad1_3" x1="33.3%" y1="100%" x2="100%" y2="0%"><stop offset="20%" stop-color="#9ea7b0" stop-opacity="1"></stop><stop offset="80%" stop-color="#afb6bc" stop-opacity="1"></stop></linearGradient></defs><defs><linearGradient id="grad1_4" x1="33.3%" y1="100%" x2="100%" y2="0%"><stop offset="20%" stop-color="#c1c4c7" stop-opacity="1"></stop><stop offset="80%" stop-color="#afb6bc" stop-opacity="1"></stop></linearGradient></defs><defs><linearGradient id="grad1_5" x1="33.3%" y1="100%" x2="100%" y2="0%"><stop offset="20%" stop-color="#c1c4c7" stop-opacity="1"></stop><stop offset="80%" stop-color="#d3d3d3" stop-opacity="1"></stop></linearGradient></defs><defs><linearGradient id="grad2_0" x1="0%" y1="100%" x2="66.7%" y2="0%"><stop offset="20%" stop-color="#7b8b9a" stop-opacity="1"></stop><stop offset="80%" stop-color="#7b8b9a" stop-opacity="1"></stop></linearGradient></defs><defs><linearGradient id="grad2_1" x1="0%" y1="100%" x2="66.7%" y2="0%"><stop offset="20%" stop-color="#8c99a5" stop-opacity="1"></stop><stop offset="80%" stop-color="#7b8b9a" stop-opacity="1"></stop></linearGradient></defs><defs><linearGradient id="grad2_2" x1="0%" y1="100%" x2="66.7%" y2="0%"><stop offset="20%" stop-color="#8c99a5" stop-opacity="1"></stop><stop offset="80%" stop-color="#9ea7b0" stop-opacity="1"></stop></linearGradient></defs><defs><linearGradient id="grad2_3" x1="0%" y1="100%" x2="66.7%" y2="0%"><stop offset="20%" stop-color="#afb6bc" stop-opacity="1"></stop><stop offset="80%" stop-color="#9ea7b0" stop-opacity="1"></stop></linearGradient></defs><defs><linearGradient id="grad2_4" x1="0%" y1="100%" x2="66.7%" y2="0%"><stop offset="20%" stop-color="#afb6bc" stop-opacity="1"></stop><stop offset="80%" stop-color="#c1c4c7" stop-opacity="1"></stop></linearGradient></defs><defs><linearGradient id="grad2_5" x1="0%" y1="100%" x2="66.7%" y2="0%"><stop offset="20%" stop-color="#d3d3d3" stop-opacity="1"></stop><stop offset="80%" stop-color="#c1c4c7" stop-opacity="1"></stop></linearGradient></defs><g transform="translate(900, 600)"><path d="M-540.8 0C-536.6 -34.5 -532.4 -69 -528.6 -105.2C-524.9 -141.3 -521.5 -179.2 -499.7 -207C-477.8 -234.8 -437.5 -252.5 -408.3 -272.8C-379 -293.1 -360.9 -315.9 -342.9 -342.9C-325 -370 -307.2 -401.1 -282.8 -423.2C-258.4 -445.3 -227.3 -458.4 -197.1 -475.8C-166.9 -493.2 -137.5 -515.1 -104.8 -526.7C-72.1 -538.3 -36 -539.5 0 -540.8L0 0Z" fill="#cacccd"></path><path d="M-450.7 0C-447.2 -28.7 -443.7 -57.5 -440.5 -87.6C-437.4 -117.8 -434.6 -149.3 -416.4 -172.5C-398.2 -195.6 -364.6 -210.4 -340.2 -227.3C-315.9 -244.2 -300.8 -263.3 -285.8 -285.8C-270.8 -308.3 -256 -334.3 -235.7 -352.7C-215.3 -371.1 -189.4 -382 -164.2 -396.5C-139 -411 -114.6 -429.3 -87.3 -438.9C-60 -448.5 -30 -449.6 0 -450.7L0 0Z" fill="#b8bdc2"></path><path d="M-360.6 0C-357.8 -23 -354.9 -46 -352.4 -70.1C-349.9 -94.2 -347.7 -119.5 -333.1 -138C-318.5 -156.5 -291.7 -168.3 -272.2 -181.9C-252.7 -195.4 -240.6 -210.6 -228.6 -228.6C-216.7 -246.6 -204.8 -267.4 -188.5 -282.1C-172.2 -296.9 -151.5 -305.6 -131.4 -317.2C-111.2 -328.8 -91.6 -343.4 -69.8 -351.1C-48 -358.8 -24 -359.7 0 -360.6L0 0Z" fill="#a6aeb6"></path><path d="M-270.4 0C-268.3 -17.2 -266.2 -34.5 -264.3 -52.6C-262.4 -70.7 -260.8 -89.6 -249.8 -103.5C-238.9 -117.4 -218.7 -126.2 -204.1 -136.4C-189.5 -146.5 -180.5 -158 -171.5 -171.5C-162.5 -185 -153.6 -200.6 -141.4 -211.6C-129.2 -222.7 -113.7 -229.2 -98.5 -237.9C-83.4 -246.6 -68.7 -257.6 -52.4 -263.3C-36 -269.1 -18 -269.8 0 -270.4L0 0Z" fill="#95a0ab"></path><path d="M-180.3 0C-178.9 -11.5 -177.5 -23 -176.2 -35.1C-175 -47.1 -173.8 -59.7 -166.6 -69C-159.3 -78.3 -145.8 -84.2 -136.1 -90.9C-126.3 -97.7 -120.3 -105.3 -114.3 -114.3C-108.3 -123.3 -102.4 -133.7 -94.3 -141.1C-86.1 -148.4 -75.8 -152.8 -65.7 -158.6C-55.6 -164.4 -45.8 -171.7 -34.9 -175.6C-24 -179.4 -12 -179.8 0 -180.3L0 0Z" fill="#8492a0"></path><path d="M-90.1 0C-89.4 -5.7 -88.7 -11.5 -88.1 -17.5C-87.5 -23.6 -86.9 -29.9 -83.3 -34.5C-79.6 -39.1 -72.9 -42.1 -68 -45.5C-63.2 -48.8 -60.2 -52.7 -57.2 -57.2C-54.2 -61.7 -51.2 -66.9 -47.1 -70.5C-43.1 -74.2 -37.9 -76.4 -32.8 -79.3C-27.8 -82.2 -22.9 -85.9 -17.5 -87.8C-12 -89.7 -6 -89.9 0 -90.1L0 0Z" fill="#7b8b9a"></path></g><g transform="translate(0, 0)"><path d="M540.8 0C542.6 37 544.3 74 530.4 105.5C516.6 137 487.2 163 472.1 195.6C457 228.1 456.1 267.2 433.2 289.5C410.3 311.7 365.5 317 337.3 337.3C309.1 357.6 297.5 393 272.2 407.4C246.9 421.9 208 415.5 178.3 430.5C148.7 445.6 128.4 482.2 100.3 504.1C72.1 526.1 36.1 533.5 0 540.8L0 0Z" fill="#cacccd"></path><path d="M450.7 0C452.1 30.8 453.6 61.7 442 87.9C430.5 114.2 406 135.8 393.4 163C380.8 190.1 380.1 222.7 361 241.2C341.9 259.7 304.6 264.1 281.1 281.1C257.6 298 247.9 327.5 226.9 339.5C205.8 351.6 173.3 346.2 148.6 358.8C123.9 371.3 107 401.8 83.6 420.1C60.1 438.4 30 444.6 0 450.7L0 0Z" fill="#b8bdc2"></path><path d="M360.6 0C361.7 24.7 362.8 49.3 353.6 70.3C344.4 91.3 324.8 108.7 314.7 130.4C304.6 152.1 304 178.2 288.8 193C273.6 207.8 243.7 211.3 224.9 224.9C206.1 238.4 198.3 262 181.5 271.6C164.6 281.3 138.6 277 118.9 287C99.1 297.1 85.6 321.4 66.9 336.1C48.1 350.7 24 355.6 0 360.6L0 0Z" fill="#a6aeb6"></path><path d="M270.4 0C271.3 18.5 272.1 37 265.2 52.8C258.3 68.5 243.6 81.5 236.1 97.8C228.5 114.1 228 133.6 216.6 144.7C205.2 155.8 182.7 158.5 168.6 168.6C154.5 178.8 148.8 196.5 136.1 203.7C123.5 210.9 104 207.7 89.2 215.3C74.4 222.8 64.2 241.1 50.1 252.1C36.1 263 18 266.7 0 270.4L0 0Z" fill="#95a0ab"></path><path d="M180.3 0C180.9 12.3 181.4 24.7 176.8 35.2C172.2 45.7 162.4 54.3 157.4 65.2C152.3 76 152 89.1 144.4 96.5C136.8 103.9 121.8 105.7 112.4 112.4C103 119.2 99.2 131 90.7 135.8C82.3 140.6 69.3 138.5 59.4 143.5C49.6 148.5 42.8 160.7 33.4 168C24 175.4 12 177.8 0 180.3L0 0Z" fill="#8492a0"></path><path d="M90.1 0C90.4 6.2 90.7 12.3 88.4 17.6C86.1 22.8 81.2 27.2 78.7 32.6C76.2 38 76 44.5 72.2 48.2C68.4 51.9 60.9 52.8 56.2 56.2C51.5 59.6 49.6 65.5 45.4 67.9C41.2 70.3 34.7 69.2 29.7 71.8C24.8 74.3 21.4 80.4 16.7 84C12 87.7 6 88.9 0 90.1L0 0Z" fill="#7b8b9a"></path></g></svg>