<svg id="visual" viewBox="0 0 899 57" width="899" height="57" xmlns="http://www.w3.org/2000/svg" xmlns:xlink="http://www.w3.org/1999/xlink" version="1.1"><path d="M580 0L374 0L374 10L606 10L606 19L452 19L452 29L483 29L483 38L282 38L282 48L419 48L419 57L0 57L0 48L0 48L0 38L0 38L0 29L0 29L0 19L0 19L0 10L0 10L0 0L0 0Z" fill="#9221ff"></path><path d="M469 0L465 0L465 10L504 10L504 19L484 19L484 29L469 29L469 38L287 38L287 48L536 48L536 57L0 57L0 48L0 48L0 38L0 38L0 29L0 29L0 19L0 19L0 10L0 10L0 0L0 0Z" fill="#a344ff"></path><path d="M238 0L454 0L454 10L496 10L496 19L226 19L226 29L293 29L293 38L431 38L431 48L304 48L304 57L0 57L0 48L0 48L0 38L0 38L0 29L0 29L0 19L0 19L0 10L0 10L0 0L0 0Z" fill="#b35fff"></path><path d="M207 0L430 0L430 10L294 10L294 19L412 19L412 29L212 29L212 38L284 38L284 48L312 48L312 57L0 57L0 48L0 48L0 38L0 38L0 29L0 29L0 19L0 19L0 10L0 10L0 0L0 0Z" fill="#c177ff"></path><path d="M366 0L237 0L237 10L301 10L301 19L259 19L259 29L179 29L179 38L201 38L201 48L251 48L251 57L0 57L0 48L0 48L0 38L0 38L0 29L0 29L0 19L0 19L0 10L0 10L0 0L0 0Z" fill="#cd8fff"></path><path d="M186 0L265 0L265 10L247 10L247 19L265 19L265 29L269 29L269 38L188 38L188 48L120 48L120 57L0 57L0 48L0 48L0 38L0 38L0 29L0 29L0 19L0 19L0 10L0 10L0 0L0 0Z" fill="#d9a5ff"></path><path d="M268 0L159 0L159 10L202 10L202 19L100 19L100 29L100 29L100 38L203 38L203 48L243 48L243 57L0 57L0 48L0 48L0 38L0 38L0 29L0 29L0 19L0 19L0 10L0 10L0 0L0 0Z" fill="#e3bcff"></path><path d="M170 0L196 0L196 10L149 10L149 19L220 19L220 29L222 29L222 38L149 38L149 48L127 48L127 57L0 57L0 48L0 48L0 38L0 38L0 29L0 29L0 19L0 19L0 10L0 10L0 0L0 0Z" fill="#edd2ff"></path><path d="M53 0L62 0L62 10L51 10L51 19L44 19L44 29L133 29L133 38L117 38L117 48L156 48L156 57L0 57L0 48L0 48L0 38L0 38L0 29L0 29L0 19L0 19L0 10L0 10L0 0L0 0Z" fill="#f6e9ff"></path><path d="M95 0L43 0L43 10L44 10L44 19L48 19L48 29L7 29L7 38L73 38L73 48L92 48L92 57L0 57L0 48L0 48L0 38L0 38L0 29L0 29L0 19L0 19L0 10L0 10L0 0L0 0Z" fill="#ffffff"></path></svg>