<svg id="visual" viewBox="0 0 900 600" width="900" height="600" xmlns="http://www.w3.org/2000/svg" xmlns:xlink="http://www.w3.org/1999/xlink" version="1.1"><rect x="0" y="0" width="900" height="600" fill="#000000"></rect><defs><linearGradient id="grad1_0" x1="33.3%" y1="100%" x2="100%" y2="0%"><stop offset="20%" stop-color="#353535" stop-opacity="1"></stop><stop offset="80%" stop-color="#353535" stop-opacity="1"></stop></linearGradient></defs><defs><linearGradient id="grad1_1" x1="33.3%" y1="100%" x2="100%" y2="0%"><stop offset="20%" stop-color="#353535" stop-opacity="1"></stop><stop offset="80%" stop-color="#2e2e2e" stop-opacity="1"></stop></linearGradient></defs><defs><linearGradient id="grad1_2" x1="33.3%" y1="100%" x2="100%" y2="0%"><stop offset="20%" stop-color="#272727" stop-opacity="1"></stop><stop offset="80%" stop-color="#2e2e2e" stop-opacity="1"></stop></linearGradient></defs><defs><linearGradient id="grad1_3" x1="33.3%" y1="100%" x2="100%" y2="0%"><stop offset="20%" stop-color="#272727" stop-opacity="1"></stop><stop offset="80%" stop-color="#212121" stop-opacity="1"></stop></linearGradient></defs><defs><linearGradient id="grad1_4" x1="33.3%" y1="100%" x2="100%" y2="0%"><stop offset="20%" stop-color="#1a1a1a" stop-opacity="1"></stop><stop offset="80%" stop-color="#212121" stop-opacity="1"></stop></linearGradient></defs><defs><linearGradient id="grad1_5" x1="33.3%" y1="100%" x2="100%" y2="0%"><stop offset="20%" stop-color="#1a1a1a" stop-opacity="1"></stop><stop offset="80%" stop-color="#141414" stop-opacity="1"></stop></linearGradient></defs><defs><linearGradient id="grad1_6" x1="33.3%" y1="100%" x2="100%" y2="0%"><stop offset="20%" stop-color="#0b0b0b" stop-opacity="1"></stop><stop offset="80%" stop-color="#141414" stop-opacity="1"></stop></linearGradient></defs><defs><linearGradient id="grad1_7" x1="33.3%" y1="100%" x2="100%" y2="0%"><stop offset="20%" stop-color="#0b0b0b" stop-opacity="1"></stop><stop offset="80%" stop-color="#000000" stop-opacity="1"></stop></linearGradient></defs><defs><linearGradient id="grad2_0" x1="0%" y1="100%" x2="66.7%" y2="0%"><stop offset="20%" stop-color="#353535" stop-opacity="1"></stop><stop offset="80%" stop-color="#353535" stop-opacity="1"></stop></linearGradient></defs><defs><linearGradient id="grad2_1" x1="0%" y1="100%" x2="66.7%" y2="0%"><stop offset="20%" stop-color="#2e2e2e" stop-opacity="1"></stop><stop offset="80%" stop-color="#353535" stop-opacity="1"></stop></linearGradient></defs><defs><linearGradient id="grad2_2" x1="0%" y1="100%" x2="66.7%" y2="0%"><stop offset="20%" stop-color="#2e2e2e" stop-opacity="1"></stop><stop offset="80%" stop-color="#272727" stop-opacity="1"></stop></linearGradient></defs><defs><linearGradient id="grad2_3" x1="0%" y1="100%" x2="66.7%" y2="0%"><stop offset="20%" stop-color="#212121" stop-opacity="1"></stop><stop offset="80%" stop-color="#272727" stop-opacity="1"></stop></linearGradient></defs><defs><linearGradient id="grad2_4" x1="0%" y1="100%" x2="66.7%" y2="0%"><stop offset="20%" stop-color="#212121" stop-opacity="1"></stop><stop offset="80%" stop-color="#1a1a1a" stop-opacity="1"></stop></linearGradient></defs><defs><linearGradient id="grad2_5" x1="0%" y1="100%" x2="66.7%" y2="0%"><stop offset="20%" stop-color="#141414" stop-opacity="1"></stop><stop offset="80%" stop-color="#1a1a1a" stop-opacity="1"></stop></linearGradient></defs><defs><linearGradient id="grad2_6" x1="0%" y1="100%" x2="66.7%" y2="0%"><stop offset="20%" stop-color="#141414" stop-opacity="1"></stop><stop offset="80%" stop-color="#0b0b0b" stop-opacity="1"></stop></linearGradient></defs><defs><linearGradient id="grad2_7" x1="0%" y1="100%" x2="66.7%" y2="0%"><stop offset="20%" stop-color="#000000" stop-opacity="1"></stop><stop offset="80%" stop-color="#0b0b0b" stop-opacity="1"></stop></linearGradient></defs><g transform="translate(900, 600)"><path d="M-540.8 0C-547.5 -64.2 -554.1 -128.5 -514.4 -167.1C-474.7 -205.8 -388.6 -218.9 -343 -249.2C-297.4 -279.6 -292.2 -327.2 -268.6 -369.7C-245 -412.3 -203 -449.8 -155.1 -477.4C-107.3 -505.1 -53.6 -523 0 -540.8L0 0Z" fill="#060606"></path><path d="M-473.2 0C-479 -56.2 -484.8 -112.4 -450.1 -146.2C-415.3 -180.1 -340.1 -191.5 -300.1 -218.1C-260.2 -244.6 -255.7 -286.3 -235 -323.5C-214.4 -360.7 -177.6 -393.5 -135.7 -417.8C-93.9 -442 -46.9 -457.6 0 -473.2L0 0Z" fill="#101010"></path><path d="M-405.6 0C-410.6 -48.2 -415.6 -96.3 -385.8 -125.3C-356 -154.3 -291.5 -164.2 -257.3 -186.9C-223.1 -209.7 -219.2 -245.4 -201.5 -277.3C-183.8 -309.2 -152.2 -337.3 -116.3 -358.1C-80.5 -378.8 -40.2 -392.2 0 -405.6L0 0Z" fill="#171717"></path><path d="M-338 0C-342.2 -40.1 -346.3 -80.3 -321.5 -104.5C-296.7 -128.6 -242.9 -136.8 -214.4 -155.8C-185.9 -174.7 -182.6 -204.5 -167.9 -231.1C-153.1 -257.7 -126.9 -281.1 -97 -298.4C-67.1 -315.7 -33.5 -326.9 0 -338L0 0Z" fill="#1e1e1e"></path><path d="M-270.4 0C-273.7 -32.1 -277 -64.2 -257.2 -83.6C-237.3 -102.9 -194.3 -109.4 -171.5 -124.6C-148.7 -139.8 -146.1 -163.6 -134.3 -184.9C-122.5 -206.1 -101.5 -224.9 -77.6 -238.7C-53.6 -252.6 -26.8 -261.5 0 -270.4L0 0Z" fill="#242424"></path><path d="M-202.8 0C-205.3 -24.1 -207.8 -48.2 -192.9 -62.7C-178 -77.2 -145.7 -82.1 -128.6 -93.5C-111.5 -104.8 -109.6 -122.7 -100.7 -138.6C-91.9 -154.6 -76.1 -168.7 -58.2 -179C-40.2 -189.4 -20.1 -196.1 0 -202.8L0 0Z" fill="#2b2b2b"></path><path d="M-135.2 0C-136.9 -16.1 -138.5 -32.1 -128.6 -41.8C-118.7 -51.4 -97.2 -54.7 -85.8 -62.3C-74.4 -69.9 -73.1 -81.8 -67.2 -92.4C-61.3 -103.1 -50.7 -112.4 -38.8 -119.4C-26.8 -126.3 -13.4 -130.7 0 -135.2L0 0Z" fill="#323232"></path><path d="M-67.6 0C-68.4 -8 -69.3 -16.1 -64.3 -20.9C-59.3 -25.7 -48.6 -27.4 -42.9 -31.2C-37.2 -34.9 -36.5 -40.9 -33.6 -46.2C-30.6 -51.5 -25.4 -56.2 -19.4 -59.7C-13.4 -63.1 -6.7 -65.4 0 -67.6L0 0Z" fill="#353535"></path></g><g transform="translate(0, 0)"><path d="M540.8 0C542.6 61.1 544.3 122.2 514.4 167.1C484.4 212 422.8 240.7 382.7 278C342.5 315.4 323.8 361.5 291 400.5C258.1 439.5 211.2 471.4 160.4 493.6C109.5 515.8 54.8 528.3 0 540.8L0 0Z" fill="#060606"></path><path d="M473.2 0C474.7 53.5 476.3 107 450.1 146.2C423.9 185.5 370 210.6 334.8 243.3C299.7 276 283.3 316.3 254.6 350.4C225.9 384.5 184.8 412.5 140.3 431.9C95.8 451.3 47.9 462.3 0 473.2L0 0Z" fill="#101010"></path><path d="M405.6 0C406.9 45.8 408.2 91.7 385.8 125.3C363.3 159 317.1 180.5 287 208.5C256.9 236.5 242.8 271.1 218.2 300.3C193.6 329.6 158.4 353.5 120.3 370.2C82.2 386.9 41.1 396.2 0 405.6L0 0Z" fill="#171717"></path><path d="M338 0C339.1 38.2 340.2 76.4 321.5 104.5C302.8 132.5 264.3 150.4 239.2 173.8C214.1 197.1 202.4 225.9 181.8 250.3C161.3 274.7 132 294.6 100.2 308.5C68.5 322.4 34.2 330.2 0 338L0 0Z" fill="#1e1e1e"></path><path d="M270.4 0C271.3 30.6 272.1 61.1 257.2 83.6C242.2 106 211.4 120.3 191.3 139C171.3 157.7 161.9 180.7 145.5 200.2C129.1 219.7 105.6 235.7 80.2 246.8C54.8 257.9 27.4 264.2 0 270.4L0 0Z" fill="#242424"></path><path d="M202.8 0C203.5 22.9 204.1 45.8 192.9 62.7C181.7 79.5 158.6 90.2 143.5 104.3C128.4 118.3 121.4 135.5 109.1 150.2C96.8 164.8 79.2 176.8 60.1 185.1C41.1 193.4 20.5 198.1 0 202.8L0 0Z" fill="#2b2b2b"></path><path d="M135.2 0C135.6 15.3 136.1 30.6 128.6 41.8C121.1 53 105.7 60.2 95.7 69.5C85.6 78.8 80.9 90.4 72.7 100.1C64.5 109.9 52.8 117.8 40.1 123.4C27.4 129 13.7 132.1 0 135.2L0 0Z" fill="#323232"></path><path d="M67.6 0C67.8 7.6 68 15.3 64.3 20.9C60.6 26.5 52.9 30.1 47.8 34.8C42.8 39.4 40.5 45.2 36.4 50.1C32.3 54.9 26.4 58.9 20 61.7C13.7 64.5 6.8 66 0 67.6L0 0Z" fill="#353535"></path></g></svg>