<svg id="visual" viewBox="0 0 57 599" width="57" height="599" xmlns="http://www.w3.org/2000/svg" xmlns:xlink="http://www.w3.org/1999/xlink" version="1.1"><path d="M0 385L10 385L10 247L19 247L19 402L29 402L29 300L38 300L38 320L48 320L48 186L57 186L57 278L57 0L57 0L48 0L48 0L38 0L38 0L29 0L29 0L19 0L19 0L10 0L10 0L0 0Z" fill="#9221ff"></path><path d="M0 311L10 311L10 308L19 308L19 334L29 334L29 321L38 321L38 311L48 311L48 190L57 190L57 356L57 0L57 0L48 0L48 0L38 0L38 0L29 0L29 0L19 0L19 0L10 0L10 0L0 0Z" fill="#9d3bff"></path><path d="M0 157L10 157L10 301L19 301L19 329L29 329L29 149L38 149L38 193L48 193L48 286L57 286L57 201L57 0L57 0L48 0L48 0L38 0L38 0L29 0L29 0L19 0L19 0L10 0L10 0L0 0Z" fill="#a74fff"></path><path d="M0 136L10 136L10 285L19 285L19 194L29 194L29 273L38 273L38 140L48 140L48 187L57 187L57 206L57 0L57 0L48 0L48 0L38 0L38 0L29 0L29 0L19 0L19 0L10 0L10 0L0 0Z" fill="#b061ff"></path><path d="M0 242L10 242L10 156L19 156L19 199L29 199L29 171L38 171L38 117L48 117L48 132L57 132L57 165L57 0L57 0L48 0L48 0L38 0L38 0L29 0L29 0L19 0L19 0L10 0L10 0L0 0Z" fill="#b971ff"></path><path d="M0 122L10 122L10 175L19 175L19 163L29 163L29 175L38 175L38 178L48 178L48 124L57 124L57 78L57 0L57 0L48 0L48 0L38 0L38 0L29 0L29 0L19 0L19 0L10 0L10 0L0 0Z" fill="#c181ff"></path><path d="M0 177L10 177L10 104L19 104L19 133L29 133L29 65L38 65L38 65L48 65L48 134L57 134L57 160L57 0L57 0L48 0L48 0L38 0L38 0L29 0L29 0L19 0L19 0L10 0L10 0L0 0Z" fill="#c990ff"></path><path d="M0 112L10 112L10 129L19 129L19 98L29 98L29 145L38 145L38 147L48 147L48 98L57 98L57 83L57 0L57 0L48 0L48 0L38 0L38 0L29 0L29 0L19 0L19 0L10 0L10 0L0 0Z" fill="#d19fff"></path><path d="M0 33L10 33L10 39L19 39L19 32L29 32L29 28L38 28L38 87L48 87L48 76L57 76L57 102L57 0L57 0L48 0L48 0L38 0L38 0L29 0L29 0L19 0L19 0L10 0L10 0L0 0Z" fill="#d8aeff"></path><path d="M0 61L10 61L10 27L19 27L19 27L29 27L29 30L38 30L38 3L48 3L48 47L57 47L57 60L57 0L57 0L48 0L48 0L38 0L38 0L29 0L29 0L19 0L19 0L10 0L10 0L0 0Z" fill="#dfbdff"></path></svg>